<svg id="the_tree" width="352" height="603" viewBox="0 0 352 603" fill="none" xmlns="http://www.w3.org/2000/svg">
<path d="M303.273 409.683L176 333.333L183.799 461.544L303.273 409.683Z" fill="#108B10" fill-opacity="0.62"/>
<path d="M197.836 83.3926L176.624 2L151.357 83.3926H165.394H197.836Z" fill="#359235" fill-opacity="0.62"/>
<path d="M197.836 251.94L141.374 166.226L98.0143 251.94H197.836Z" fill="#348A34" fill-opacity="0.62"/>
<path d="M183.799 461.544L176 333.333L141.374 409.683L183.799 461.544Z" fill="#27BB27" fill-opacity="0.62"/>
<path d="M351 547.618L183.799 461.544L88.0321 547.618H151.357H197.836H351Z" fill="#04FA04" fill-opacity="0.62"/>
<path d="M252.426 251.94L176.624 166.226L197.836 251.94H252.426Z" fill="#27BB27" fill-opacity="0.62"/>
<path d="M176.624 166.226L252.426 251.94L224.351 166.226H176.624Z" fill="#619761" fill-opacity="0.62"/>
<path d="M197.836 251.94L176.624 166.226H141.374L197.836 251.94Z" fill="#48FA48" fill-opacity="0.62"/>
<path d="M197.836 83.3926H165.394L224.351 166.226L197.836 83.3926Z" fill="#27BB27" fill-opacity="0.62"/>
<path d="M88.0321 333.333H71.1872L33.1301 446.778L88.0321 333.333Z" fill="#27BB27" fill-opacity="0.9"/>
<path d="M280.813 333.333H176L303.273 409.683L280.813 333.333Z" fill="#27BB27" fill-opacity="0.62"/>
<path d="M165.394 83.3926H151.357L126.089 166.226L165.394 83.3926Z" fill="#27BB27" fill-opacity="0.62"/>
<path d="M252.426 251.94H197.836L280.813 333.333L252.426 251.94Z" fill="#3DF03D" fill-opacity="0.96"/>
<path d="M141.374 166.226H126.089L98.0143 251.94L141.374 166.226Z" fill="#27BB27" fill-opacity="0.62"/>
<path d="M141.374 409.683L176 333.333H88.0321L141.374 409.683Z" fill="#27BB27" fill-opacity="0.62"/>
<path d="M303.273 409.683L183.799 461.544L351 547.618L303.273 409.683Z" fill="#27BB27" fill-opacity="0.62"/>
<path d="M183.799 461.544L33.1301 446.778L13.1658 511.244L88.0321 547.618L183.799 461.544Z" fill="#27BB27" fill-opacity="0.62"/>
<path d="M197.836 251.94H98.0143L71.1872 333.333L197.836 251.94Z" fill="#27BB27" fill-opacity="0.62"/>
<path d="M183.799 461.544L141.374 409.683L88.0321 333.333L33.1301 446.778L183.799 461.544Z" fill="#1E821E" fill-opacity="0.62"/>
<path d="M280.813 333.333L197.836 251.94L71.1872 333.333H88.0321H176H280.813Z" fill="#1D8D1D" fill-opacity="0.62"/>
<path d="M224.351 166.226L165.394 83.3926L126.089 166.226H141.374H176.624H224.351Z" fill="#138A13" fill-opacity="0.62"/>
<path d="M88.0321 547.618L13.1658 511.244L1 547.618H88.0321Z" fill="#149F14" fill-opacity="0.62"/>
<path d="M151.357 547.618V602H197.836V547.618H151.357Z" fill="#816262"/>
<path d="M197.836 83.3926L176.624 2L151.357 83.3926M197.836 83.3926H165.394M197.836 83.3926L224.351 166.226M151.357 83.3926H165.394M151.357 83.3926L126.089 166.226M224.351 166.226L165.394 83.3926M224.351 166.226H141.374M224.351 166.226L252.426 251.94M224.351 166.226H176.624M165.394 83.3926L126.089 166.226M126.089 166.226H141.374M126.089 166.226L98.0143 251.94M252.426 251.94L176.624 166.226M252.426 251.94H197.836M252.426 251.94L280.813 333.333M176.624 166.226L197.836 251.94M176.624 166.226H141.374M197.836 251.94L141.374 166.226M197.836 251.94H98.0143M197.836 251.94L280.813 333.333M197.836 251.94L71.1872 333.333M141.374 166.226L98.0143 251.94M98.0143 251.94L71.1872 333.333M280.813 333.333H176M280.813 333.333L303.273 409.683M71.1872 333.333H88.0321M71.1872 333.333L33.1301 446.778M176 333.333L303.273 409.683M176 333.333L183.799 461.544M176 333.333L141.374 409.683M176 333.333H88.0321M303.273 409.683L183.799 461.544M303.273 409.683L351 547.618M183.799 461.544L141.374 409.683M183.799 461.544L33.1301 446.778M183.799 461.544L351 547.618M183.799 461.544L88.0321 547.618M141.374 409.683L88.0321 333.333M88.0321 333.333L33.1301 446.778M33.1301 446.778L13.1658 511.244M351 547.618H197.836M88.0321 547.618L13.1658 511.244M88.0321 547.618H1L13.1658 511.244M88.0321 547.618H151.357M151.357 547.618V602H197.836V547.618M151.357 547.618H197.836" stroke="black" stroke-opacity="0.64"/>
</svg>
